<svg xmlns="http://www.w3.org/2000/svg" xmlns:xlink="http://www.w3.org/1999/xlink" width="167.6866" height="229.9631">
  <defs>
    <linearGradient id="ŃŚÁŻž_ŪŪŻť_ūŗšŤŚŪÚ_37" x1="413.9202" x2="441.3901" y1="192.1695" y2="192.1695" gradientUnits="userSpaceOnUse">
      <stop offset="0" stop-color="#9579a7"/>
      <stop offset="1" stop-color="#fff"/>
    </linearGradient>
    <linearGradient id="ŃŚÁŻž_ŪŪŻť_ūŗšŤŚŪÚ_36" x1="351.7884" x2="439.1384" y1="244.4509" y2="244.4509" gradientUnits="userSpaceOnUse">
      <stop offset="0" stop-color="#fff"/>
      <stop offset="1" stop-color="#9579a7"/>
    </linearGradient>
    <linearGradient id="ŃŚÁŻž_ŪŪŻť_ūŗšŤŚŪÚ_519" x1="397.3179" x2="397.3179" y1="182.2494" y2="93.9252" gradientUnits="userSpaceOnUse">
      <stop offset="0" stop-color="#d1bde5"/>
      <stop offset="1" stop-color="#fff"/>
    </linearGradient>
    <linearGradient id="ŃŚÁŻž_ŪŪŻť_ūŗšŤŚŪÚ_93" x1="406.1373" x2="406.1373" y1="166.8085" y2="96.2606" gradientUnits="userSpaceOnUse">
      <stop offset="0" stop-color="#007c7e"/>
      <stop offset="1" stop-color="#0f183b"/>
    </linearGradient>
    <linearGradient xlink:href="#ŃŚÁŻž_ŪŪŻť_ūŗšŤŚŪÚ_36" id="ŃŚÁŻž_ŪŪŻť_ūŗšŤŚŪÚ_36-2" x1="349.8474" x2="439.9009" y1="156.16" y2="156.16"/>
    <linearGradient id="ŃŚÁŻž_ŪŪŻť_ūŗšŤŚŪÚ_20" x1="371.2782" x2="371.2782" y1="177.6559" y2="130.7894" gradientUnits="userSpaceOnUse">
      <stop offset="0" stop-color="#d1bde5"/>
      <stop offset="1" stop-color="#f4dbee"/>
    </linearGradient>
    <linearGradient xlink:href="#ŃŚÁŻž_ŪŪŻť_ūŗšŤŚŪÚ_36" id="ŃŚÁŻž_ŪŪŻť_ūŗšŤŚŪÚ_36-3" x1="429.5203" x2="450.0702" y1="297.3233" y2="297.3233"/>
    <linearGradient xlink:href="#ŃŚÁŻž_ŪŪŻť_ūŗšŤŚŪÚ_36" id="ŃŚÁŻž_ŪŪŻť_ūŗšŤŚŪÚ_36-4" x1="369.9001" x2="389.2502" y1="302.8996" y2="302.8996"/>
    <linearGradient xlink:href="#ŃŚÁŻž_ŪŪŻť_ūŗšŤŚŪÚ_36" id="ŃŚÁŻž_ŪŪŻť_ūŗšŤŚŪÚ_36-5" x1="337.572" x2="350.9122" y1="217.8886" y2="217.8886"/>
    <linearGradient xlink:href="#ŃŚÁŻž_ŪŪŻť_ūŗšŤŚŪÚ_37" id="ŃŚÁŻž_ŪŪŻť_ūŗšŤŚŪÚ_94" x1="461.5484" x2="469.6584" y1="172.966" y2="172.966"/>
    <radialGradient id="ŃŚÁŻž_ŪŪŻť_ūŗšŤŚŪÚ_23" cx="440.5451" cy="185.8544" r="23.1578" gradientUnits="userSpaceOnUse">
      <stop offset="0" stop-color="#f4dbee"/>
      <stop offset="1" stop-color="#d1bde5"/>
    </radialGradient>
    <radialGradient id="ŃŚÁŻž_ŪŪŻť_ūŗšŤŚŪÚ_436" cx="450.878" cy="266.3596" r="24.688" gradientUnits="userSpaceOnUse">
      <stop offset="0" stop-color="#f4f1ff"/>
      <stop offset="1" stop-color="#d1bde5"/>
    </radialGradient>
    <radialGradient xlink:href="#ŃŚÁŻž_ŪŪŻť_ūŗšŤŚŪÚ_23" id="ŃŚÁŻž_ŪŪŻť_ūŗšŤŚŪÚ_25" cx="372.0225" cy="208.1014" r="25.2791"/>
    <radialGradient xlink:href="#ŃŚÁŻž_ŪŪŻť_ūŗšŤŚŪÚ_436" id="ŃŚÁŻž_ŪŪŻť_ūŗšŤŚŪÚ_436-2" cx="389.2922" cy="270.8225" r="29.7659"/>
    <radialGradient id="ŃŚÁŻž_ŪŪŻť_ūŗšŤŚŪÚ_217" cx="663.2858" cy="-268.3176" r="7.5044" gradientTransform="matrix(1.3715 -.5314 .2386 .6159 -439.5387 638.4625)" gradientUnits="userSpaceOnUse">
      <stop offset="0" stop-color="#003cee"/>
      <stop offset=".0562" stop-color="#0036d6"/>
      <stop offset=".1982" stop-color="#00289e"/>
      <stop offset=".341" stop-color="#001c6d"/>
      <stop offset=".4814" stop-color="#001246"/>
      <stop offset=".6191" stop-color="#000a27"/>
      <stop offset=".7532" stop-color="#000412"/>
      <stop offset=".882" stop-color="#000104"/>
      <stop offset="1"/>
    </radialGradient>
    <clipPath id="clip-path" transform="translate(-306.5323 -93.9252)">
      <path fill="none" d="M444.3519 151.2273c-.0324.1616-.054.3233-.0971.4849-1.8536 3.9121-9.1067 14.991-27.2015 17.1465-22.2548 2.6512-31.3507-14.0534-31.3507-14.0534l-4.2463.7759c-.8513-2.64-1.7458-5.0221-2.6619-7.1668l.0108-.0108s22.0716-44.6929 61.0957-29.7126c4.7204 12.3937 5.5611 25.8436 4.451 32.5363Z"/>
    </clipPath>
    <style>
      .cls-4{fill:#cab3da}.cls-4,.cls-6,.cls-7,.cls-8{fill-rule:evenodd}.cls-6{fill:#684d73}.cls-14,.cls-7{fill:#53345f}.cls-8,.cls-9{fill:#ff6b22}.cls-23{fill:#fff}
    </style>
  </defs>
  <g style="isolation:isolate">
    <g id="space_background" data-name="space background">
      <path fill="#cab3da" d="M330.9668 291.3984a30.8844 30.8844 0 0 1-6.9585-.833c-13.6245-3.1406-19.39-18.09-16.9185-30.1386 2.5274-12.3213 14.2823-25.126 39.0928-20.6592 43.4971 7.834 50.9082-7.9531 50.9776-8.1143l2.7509 1.1973c-.3242.7432-8.4555 18.1142-54.26 9.87-22.66-4.0791-33.2588 6.7832-35.6226 18.3086-2.189 10.67 2.791 23.8779 14.6533 26.6123 14.6372 3.3711 22.6524-5.2461 31.1377-14.3721a85.3627 85.3627 0 0 1 10.7471-10.2939 34.593 34.593 0 0 1 28.7886-6.374l-.8252 2.8838a32.1692 32.1692 0 0 0-26.16 5.8867 83.2816 83.2816 0 0 0-10.3535 9.94c-7.371 7.928-14.9574 16.0855-27.0497 16.0864Z" transform="translate(-306.5323 -93.9252)"/>
      <path d="M379.597 311.5047s-4.5458 12.6315-13.2931 12.3789Z" class="cls-4" transform="translate(-306.5323 -93.9252)"/>
      <path fill="url(#ŃŚÁŻž_ŪŪŻť_ūŗšŤŚŪÚ_23)" fill-rule="evenodd" d="M466.03 180.4883c0 8.36-13.45 23.54-23.31 25.67a12.2228 12.2228 0 0 1-1.33.21c-6.18.59-12.46-3.69-16.06-6.73a35.9086 35.9086 0 0 1-3.07-2.86l-7.2-18.57s.26-.04.72-.09a34.52 34.52 0 0 1 8.19.09c4.54.66 18.47-1.51 24.63-5.49s7.77-7.01 9.47-7.39c1.71-.38 3.98 1.89 3.98 1.89s3.98 4.45 3.98 13.27Z" transform="translate(-306.5323 -93.9252)"/>
      <path d="M462.0512 167.22s-3.221 0-3.6947 2.179 1.99 13.4526 7.6737 11.0842-3.979-13.2632-3.979-13.2632Z" class="cls-6" transform="translate(-306.5323 -93.9252)"/>
      <path d="M460.82 168.4047a17.3706 17.3706 0 0 0 6.3 9.71s.1891-8.0995-6.3-9.71Z" class="cls-7" transform="translate(-306.5323 -93.9252)"/>
      <path d="M474.1184 162.9559a20.1705 20.1705 0 0 1-4.46 10.58 22.269 22.269 0 0 1-3.63 3.71 11.9391 11.9391 0 0 1-4.48-6.54s.04-.81.16-2.02c.27-2.67.91-7.28 2.26-9.28l1.11 2.6s.76-4.54 6.64-6.44c0 .0001 3.09-.3199 2.4 7.39Z" class="cls-8" transform="translate(-306.5323 -93.9252)"/>
      <path d="M441.3652 175.7973s-1.5771 5.9933 1.7387 16.0924 10.3676 8.2524 10.3676 8.2524a29.902 29.902 0 0 1-6.2406 4.3026s-17.6428 1.9753-12.3747-27.0847Z" class="cls-9" transform="translate(-306.5323 -93.9252)"/>
      <path fill="url(#ŃŚÁŻž_ŪŪŻť_ūŗšŤŚŪÚ_37)" fill-rule="evenodd" d="M425.33 199.6383c.3 1.55.56 3.18.77 4.91l-9.48-8.06-2.7-17.99 1.72-.53c.05.05.09.1.14.15a34.52 34.52 0 0 1 8.19.09s-7.98 16.9595 17.4 28.15c.01 0 .01 0 .02.01-6.18.59-12.46-3.69-16.06-6.73Z" style="mix-blend-mode:multiply" transform="translate(-306.5323 -93.9252)"/>
      <path d="M450.0688 292.2415s-5.5123-4.8632-20.5439 2.4632c0 0 8.9405 5.3684 20.5439-2.4632Zm-80.1649 4.2947S379.94 292.81 389.29 302.22c0 0-3.6916 3.4106-10.3232 2.2264s-9.0629-7.9102-9.0629-7.9102Z" class="cls-7" transform="translate(-306.5323 -93.9252)"/>
      <path fill="url(#ŃŚÁŻž_ŪŪŻť_ūŗšŤŚŪÚ_436)" fill-rule="evenodd" d="M440.3584 300.0359h-8.25s-.58-1.92-1.61-4.93c-2.59-7.62-8-22.2-13.88-30.29v-.01l20.55-26.06s.78 1.74 1.97 4.5c3.43 8.03 12.5376 23.3973 13.1676 30.5973.85 9.6601-11.9476 26.1927-11.9476 26.1927Z" transform="translate(-306.5323 -93.9252)"/>
      <path d="M437.1684 238.746a53.2048 53.2048 0 0 1-19.27 25.77l-1.28.3-6.86 1.59a.3188.3188 0 0 1-.02-.06c-.01-.03-.02-.06-.04-.11a.6843.6843 0 0 0-.04-.1 1.1146 1.1146 0 0 0-.05-.13 67.9038 67.9038 0 0 0-28.09-31.97 50.5691 50.5691 0 0 0 1.91-6.42c.1-.43.21-.89.33-1.37.52-2.21 1.11-4.96 1.74-8.34 1.39-7.39 3.83-19.49 5.52-27.81v-.01c.51-2.5.95-4.66 1.28-6.25.12-.6.23-1.13.32-1.55.17-.86.27-1.33.27-1.33s15.73 1.52 22.17-3.6c0 0 .21.2.58.61.05.05.09.1.14.15 1.91 2.16 7.11 8.98 9.55 21.52.3 1.55.56 3.18.77 4.91.07.61.14 1.23.2 1.87a104.1949 104.1949 0 0 1 10.08 27.59c.31 1.56.58 3.1399.79 4.74Z" class="cls-4" transform="translate(-306.5323 -93.9252)"/>
      <path fill="url(#ŃŚÁŻž_ŪŪŻť_ūŗšŤŚŪÚ_25)" fill-rule="evenodd" d="M395.59 201.6483v.02c-.09.53-.2 1.07-.31 1.63-1.75 8.75-5.96 18.24-11.85 24.32-3.61 3.73-7.84 6.17-12.52 6.39a25.4665 25.4665 0 0 1-19.12-7.7c-.06-.07-.12-.13-.17-.18a1.2165 1.2165 0 0 0-.14-.16c-.12-.13-.18-.2-.18-.2a5.2388 5.2388 0 0 1-3.88-4.83 53.4339 53.4339 0 0 1 1.23-9.95l1.8-.76a4.4809 4.4809 0 0 1 2.82-3.6c2.54-.85 8.74-.66 15.84-5.21a115.9435 115.9435 0 0 0 17.69-14.93 7.1987 7.1987 0 0 0 .79-.98 11.8 11.8 0 0 1 3.09-3.12l1.17-.06.77-.04 2.37-.12s3.25 4.78.6 19.48Z" transform="translate(-306.5323 -93.9252)"/>
      <path fill="url(#ŃŚÁŻž_ŪŪŻť_ūŗšŤŚŪÚ_436-2)" fill-rule="evenodd" d="M409.76 266.4083s-10.05 18.48-12.32 23.31-10.8 13.92-15.92 16.67c-.13.07-.26.14-.38.19-4.91 2.42-8.26-.19-8.26-.19s-.25-1.08-.63-2.79c-.5-2.27-1.23-5.64-1.88-9.03-.88-4.51-1.62-9.04-1.54-11.01.14-3.36 7-28.79 10.57-41.84 1.27-4.61 2.12-7.68 2.12-7.68 18.47 5.59 26.98 28.67 28.09 31.97a1.14 1.14 0 0 1 .05.13.69.69 0 0 1 .04.1c.02.05.03.08.04.11a.3224.3224 0 0 0 .02.06Z" transform="translate(-306.5323 -93.9252)"/>
      <path d="M396.2855 182.0447s8.6394 2.6073 11.671 2.4179 7.1053-7.1026 7.1053-7.1026-6.1 3.2142-18.7763 4.6847Zm-5.6027.3477s8.2642 21.987-4.1416 42.1549c0 0 12.3153-15.4573 9.7443-42.5026Z" class="cls-7" transform="translate(-306.5323 -93.9252)"/>
      <path d="M413.9249 178.4941s9.2211 15.43 12.379 27.9254c0 0-.2473-15.0432-8.6816-28.4474l-2.56-.6121Zm-33.7012 60.2527s12.6575 3.5052 27.9162 30.6473l1.6166-2.9842s-8.9053-28.5578-28.2316-32.3736Zm56.1608-4.7105s-6.16 22.5619-19.76 30.7764l1.0977 1.5972s14.69-6.3185 20.8569-24.4434Z" class="cls-7" transform="translate(-306.5323 -93.9252)"/>
      <path d="M351.3 225.7683a5.2388 5.2388 0 0 1-3.88-4.83 53.4339 53.4339 0 0 1 1.23-9.95l1.8-.76s9.29 6.35.85 15.54Z" class="cls-6" transform="translate(-306.5323 -93.9252)"/>
      <path d="M349.267 223.02s3.9316-7.8631-.6169-12.0321c-.0001.0004-2.4973 10.5704.6169 12.0321Z" class="cls-7" transform="translate(-306.5323 -93.9252)"/>
      <path d="M350.5625 214.5858s-1.514-5.1183-6.3854-6.1283v2.463s-6.8913-3.7012-11.3469.6012c0 0 2.9583 10.1863 16.9846 10.3632a11.2235 11.2235 0 0 0 .7477-7.2991Z" class="cls-8" transform="translate(-306.5323 -93.9252)"/>
      <path d="M370.5362 275.3615s.094 7.6274 10.9887 11.3221 18.05-1.2091 18.05-1.2091a49.0743 49.0743 0 0 1-4.5662 8.105c-2.1214 2.6527-17.9278 2.3068-25.6532-4.71 0 0-.8614-3.8994-.4258-6.1707s1.6065-7.3373 1.6065-7.3373Zm52.0989 0a48.9736 48.9736 0 0 0 15.9442 4.8168 20.105 20.105 0 0 0 13.7771-3.8721s-.8111 5.42-2.93 8.9679c0 0-8.6752 2.5706-14.0278 1.4338a26.2352 26.2352 0 0 1-9.9459-5.013Zm-51.6944-75.1758s17.353 11.4553 6.39 32.0661a19.3989 19.3989 0 0 0 5.7189-4.2489c3.8849-3.9877 8.4748-29.5664-7.362-31.5162Z" class="cls-9" transform="translate(-306.5323 -93.9252)"/>
      <path d="m416.7422 264.8555-.2354-.086c.06-.165 6.0035-16.6152 6.0035-28.0127 0-9.8652-1.4668-14.7138-3.4971-21.4248-.7671-2.5361-1.6367-5.41-2.51-8.8818a158.5976 158.5976 0 0 0-7.272-21.9282l.2295-.1a158.996 158.996 0 0 1 7.2847 21.9672c.8721 3.4659 1.74 6.337 2.5068 8.87 2.0367 6.7314 3.5079 11.5947 3.5079 21.497-.0001 11.442-5.9579 27.9338-6.0179 28.0993Z" class="cls-14" transform="translate(-306.5323 -93.9252)"/>
      <path fill="url(#ŃŚÁŻž_ŪŪŻť_ūŗšŤŚŪÚ_36)" fill-rule="evenodd" d="M431.1684 295.1059h-.67c-2.59-7.62-8-22.2-13.88-30.29l-6.86 1.59s-10.05 18.48-12.32 23.31-10.8 13.92-15.92 16.67c-.13.07-.26.14-.38.19l-8.89-2.98c-.5-2.27-1.23-5.64-1.88-9.03l.57-.4s10.2 5.89 18.35 2.33 15.06-28.17 13.55-31.69c-5.64-13.15-17.32-20.18-23.44-23.09 1.27-4.61 2.12-7.68 2.12-7.68a50.5691 50.5691 0 0 0 1.91-6.42c-3.61 3.73-7.84 6.17-12.52 6.39a25.4672 25.4672 0 0 1-19.12-7.7c2.01 1.99 10.25 8.93 24.48 4.76a15.9886 15.9886 0 0 0 7.49-4.82c8.95-9.94 8.7-30.3 7.83-34.36a9.4182 9.4182 0 0 0-.57-1.79v-.01a5.788 5.788 0 0 0-4.22-3.6 7.1994 7.1994 0 0 0 .79-.98 11.7979 11.7979 0 0 1 3.09-3.12l1.17-.06c.11.38.27.89.45 1.51a93.8652 93.8652 0 0 1 3.29 17.81v.02a52.4152 52.4152 0 0 1-.6 14.15c-3.04 15.25-4.75 18.22-4.75 18.22s13.34 18.6 20.84 21.67c7.51 3.06 20.28-10.74 22.79-16.2 1.2-2.59 1.99-4.36 2.51-5.5.31 1.56.58 3.14.79 4.74 0 0 .78 1.74 1.97 4.5-2.39 5.67-10.44 25.24-10.82 32.11-.44 8.0801 2.85 19.75 2.85 19.75Z" style="mix-blend-mode:multiply" transform="translate(-306.5323 -93.9252)"/>
      <path fill="#53345f" fill-rule="evenodd" d="M390.68 182.3883s7.2921 10.9468 20.971 14.0984 9.6-18.5711 9.6-18.5711l-3.6289.0565-1.9821-.0038Z" opacity=".5" style="mix-blend-mode:multiply" transform="translate(-306.5323 -93.9252)"/>
      <path fill="url(#ŃŚÁŻž_ŪŪŻť_ūŗšŤŚŪÚ_519)" fill-rule="evenodd" d="M444.3519 151.2273c-.0324.1616-.054.3233-.0971.4849a22.2616 22.2616 0 0 1-3.9875 7.738s-.1185.1724-.3664.4742a51.35 51.35 0 0 1-17.5344 14.3121c-11.92 5.8519-30.8335 10.7556-45.5443 6.2615-14.7-4.4941-27.568-27.7727-26.9537-36.7609a75.7323 75.7323 0 0 1 1.164-9.2683c1.886-9.915 6.6818-22.8907 19.4635-30.7473 9.6564-5.9382 24.1839-9.333 35.9634-9.7533a52.7793 52.7793 0 0 1 9.98.4958 23.4127 23.4127 0 0 1 5.1623 1.3579l.6035.2694a9.6707 9.6707 0 0 1 1.1532.6143c19.0859 11.9088 22.8903 43.0871 20.9935 54.5217Z" transform="translate(-306.5323 -93.9252)"/>
      <path fill="url(#ŃŚÁŻž_ŪŪŻť_ūŗšŤŚŪÚ_93)" d="M441.9789 150.0044c-.03.1516-.0506.3032-.0911.4549-1.7385 3.6692-8.5411 14.06-25.5123 16.0817-20.8729 2.4865-29.404-13.1808-29.404-13.1808l-3.9826.7278c-.7985-2.4765-1.6374-4.71-2.4966-6.7217-4.771-11.3007-9.9765-15.6977-10.4617-17.4059-.5761-2.0115.02-14.7071 12.3519-24.32a46.9911 46.9911 0 0 1 24.0569-9.34 49.5093 49.5093 0 0 1 9.36.465 21.9636 21.9636 0 0 1 4.8416 1.2746l.566.2527a9.0845 9.0845 0 0 1 1.0817.5761c7.4293 4.64 12.3822 12.3823 15.5156 20.62 4.4273 11.6239 5.2157 24.2386 4.1746 30.5156Z" transform="translate(-306.5323 -93.9252)"/>
      <path fill="url(#ŃŚÁŻž_ŪŪŻť_ūŗšŤŚŪÚ_36-2)" fill-rule="evenodd" d="M439.9009 159.9244a51.35 51.35 0 0 1-17.5344 14.3121c-11.92 5.8519-30.8335 10.7556-45.5443 6.2615-14.7-4.4941-27.568-27.7727-26.9537-36.7609a75.7323 75.7323 0 0 1 1.164-9.2683 7.16 7.16 0 0 1 5.5071-4.3432c9.9365-1.4981 22.6 28.1176 22.6 28.1176l4.4294-1.9076a33.1594 33.1594 0 0 0 29.2645 16.0705c17.9221-.3561 25.3215-10.3801 27.0674-12.4817Z" style="mix-blend-mode:multiply" transform="translate(-306.5323 -93.9252)"/>
      <path fill="url(#ŃŚÁŻž_ŪŪŻť_ūŗšŤŚŪÚ_20)" fill-rule="evenodd" d="M369.8062 176.8984c5.852 2.4249 13.4284-1.983 9.0637-17.8469-4.3971-15.9179-18.2889-28.0315-18.2889-28.0315 13.3637-3.0176 20.8753 24.5611 20.8753 24.5611.1509 1.2286.2695 2.3818.3449 3.47l.0108.1185c1.7351 23.1282-10.8957 18.203-12.0058 17.7288Z" transform="translate(-306.5323 -93.9252)"/>
      <path d="M349.9848 146.1952c-.4844-5.7605 1.5888-10.4853 4.6518-11.4383s15.7976 9.8374 19.3308 25.7971-7.9223 14.3609-11.8777 9.1992l-2.2387-2.7807s10.771 7.1405 11.4272-3.56c.7493-12.2179-12.7619-22.87-16.71-19.4669s-1.3 12.2141-1.3 12.2141-2.9623-6.1451-3.2834-9.9645Z" class="cls-7" transform="translate(-306.5323 -93.9252)"/>
      <path d="m430.98 302.4083.44-2.37-1.9-5.33s12.92 1.26 20.55-2.47a22.6294 22.6294 0 0 1-8.48 8.59s7.32.76 9.35 7.58Zm-41.73-.17-9.65 6.87v2.4s-3.89 9.28-13.3 12.38c0 0-1.26-8.39 6.32-15.46l-2.72-11.89a20.4094 20.4094 0 0 0 8.15 6.38c5.11 2.19 10.71-.44 11.2-.68Z" class="cls-6" transform="translate(-306.5323 -93.9252)"/>
      <path d="m124.445 208.485-.758 1.326 20.463 5.937.253-1.263-19.958-6z" class="cls-4"/>
      <path fill="url(#ŃŚÁŻž_ŪŪŻť_ūŗšŤŚŪÚ_36-3)" fill-rule="evenodd" d="M450.07 292.2383a22.6294 22.6294 0 0 1-8.48 8.59s-7.58.44-10.61 1.58l.44-2.37-1.9-5.33s12.92 1.26 20.55-2.47Z" style="mix-blend-mode:multiply" transform="translate(-306.5323 -93.9252)"/>
      <path fill="url(#ŃŚÁŻž_ŪŪŻť_ūŗšŤŚŪÚ_36-4)" fill-rule="evenodd" d="m389.25 302.2383-9.65 6.87a14.8827 14.8827 0 0 1-6.98-.68l-2.72-11.89a20.4094 20.4094 0 0 0 8.15 6.38c5.11 2.19 10.71-.44 11.2-.68Z" style="mix-blend-mode:multiply" transform="translate(-306.5323 -93.9252)"/>
      <path d="M376.591 127.5345s-1.52-4.5965-1.52-6.1286a20.38 20.38 0 0 1 5.3625-5.8733l5.49 7.15s-7.4297 3.4474-9.3325 4.8519Zm14.7333 27.7465a21.7556 21.7556 0 0 0 4.925 5.2453l1.8135-2.0579s-2.9456-2.9052-4.4385-4.7613Z" class="cls-23" transform="translate(-306.5323 -93.9252)"/>
      <g clip-path="url(#clip-path)" style="mix-blend-mode:screen">
        <path d="M72.2621 9.7855h66.6676v67.7992H72.2621z"/>
        <path fill-rule="evenodd" d="M443.6515 105.2838c5.3278 13.412-5.7755 30.4108-24.8 37.9679s-38.7655 2.8109-44.0932-10.6011c-2.6639-6.7061-1.22-14.3088 3.2679-21.18a40.5954 40.5954 0 0 1 8.8818-9.5538v.7935h50.282v-5.8039a19.6386 19.6386 0 0 1 6.4615 8.3774Z" transform="translate(-306.5323 -93.9252)"/>
        <path fill="#000001" fill-rule="evenodd" d="M443.4037 105.3822c5.2894 13.3155-5.734 30.1921-24.6214 37.6948s-38.4866 2.7906-43.776-10.5249c-2.6447-6.6577-1.2112-14.2058 3.2444-21.0272a40.3037 40.3037 0 0 1 8.8179-9.4851v.6709h49.92v-5.6456a19.4975 19.4975 0 0 1 6.4151 8.3171Z" transform="translate(-306.5323 -93.9252)"/>
        <path fill="#010101" fill-rule="evenodd" d="M443.1559 105.4807c5.2511 13.219-5.6924 29.9732-24.443 37.4216s-38.2077 2.77-43.4588-10.4486c-2.6255-6.6095-1.2024-14.1029 3.2209-20.8749a40.01 40.01 0 0 1 8.754-9.4163v.5482h49.558v-5.4869a19.3567 19.3567 0 0 1 6.3689 8.2569Z" transform="translate(-306.5323 -93.9252)"/>
        <path fill="#010102" fill-rule="evenodd" d="M442.9081 105.5791c5.2127 13.1225-5.6509 29.7545-24.2646 37.1485s-37.9288 2.75-43.1416-10.3724c-2.6064-6.5612-1.1936-14 3.1974-20.7224a39.7163 39.7163 0 0 1 8.69-9.3476v.4255h49.1961v-5.3281a19.2141 19.2141 0 0 1 6.3227 8.1965Z" transform="translate(-306.5323 -93.9252)"/>
        <path fill="#010103" fill-rule="evenodd" d="M442.66 105.6775c5.1744 13.0261-5.6094 29.5358-24.0862 36.8754s-37.65 2.73-42.8244-10.2961c-2.5872-6.513-1.1848-13.897 3.1739-20.57a39.4265 39.4265 0 0 1 8.6263-9.2789v.3029h48.8344v-5.1695a19.073 19.073 0 0 1 6.276 8.1362Z" transform="translate(-306.5323 -93.9252)"/>
        <path fill="#010204" fill-rule="evenodd" d="M442.4124 105.776c5.1361 12.93-5.5677 29.3169-23.9077 36.6022s-37.3711 2.71-42.5072-10.22c-2.568-6.4647-1.176-13.794 3.15-20.4177a39.1344 39.1344 0 0 1 8.5624-9.21v.18h48.4731V97.7a18.9312 18.9312 0 0 1 6.2294 8.076Z" transform="translate(-306.5323 -93.9252)"/>
        <path fill="#020205" fill-rule="evenodd" d="M442.1646 105.8744c5.0978 12.8331-5.5262 29.0982-23.7293 36.3291s-37.0922 2.69-42.19-10.1436 5.5262-29.0981 23.7293-36.3291v6.98h36.0069v-4.852a18.79 18.79 0 0 1 6.1831 8.0156Z" transform="translate(-306.5323 -93.9252)"/>
        <path fill="#020206" fill-rule="evenodd" d="M441.9168 105.9729c5.0594 12.7365-5.4847 28.8793-23.5509 36.0559s-36.8133 2.6692-41.8727-10.0673 5.4847-28.8794 23.5509-36.056v6.8052H435.78v-4.6933a18.6487 18.6487 0 0 1 6.1368 7.9555Z" transform="translate(-306.5323 -93.9252)"/>
        <path fill="#020306" fill-rule="evenodd" d="M441.669 106.0713c5.0211 12.64-5.4431 28.6606-23.3725 35.7828s-36.5344 2.649-41.5555-9.9911 5.4431-28.6606 23.3725-35.7828v6.63h35.4655v-4.5341a18.509 18.509 0 0 1 6.09 7.8952Z" transform="translate(-306.5323 -93.9252)"/>
        <path fill="#030307" fill-rule="evenodd" d="M441.4212 106.17c4.9827 12.5436-5.4016 28.4418-23.1941 35.51s-36.2555 2.6288-41.2383-9.9148 5.4016-28.4418 23.1941-35.51v6.4557h35.1948v-4.3761a18.3671 18.3671 0 0 1 6.0435 7.8352Z" transform="translate(-306.5323 -93.9252)"/>
        <path fill="#030308" fill-rule="evenodd" d="M441.1734 106.2682c4.9444 12.4471-5.36 28.223-23.0157 35.2365s-35.9766 2.6085-40.9211-9.8386 5.36-28.223 23.0157-35.2364v6.281h34.924v-4.2172a18.2265 18.2265 0 0 1 5.9971 7.7747Z" transform="translate(-306.5323 -93.9252)"/>
        <path fill="#030409" fill-rule="evenodd" d="M440.9255 106.3666c4.9061 12.3507-5.3184 28.0043-22.8372 34.9633s-35.6977 2.5884-40.6039-9.7622 5.3185-28.0042 22.8373-34.9633v6.1063h34.6533v-4.0585a18.085 18.085 0 0 1 5.9505 7.7144Z" transform="translate(-306.5323 -93.9252)"/>
        <path fill="#04040a" fill-rule="evenodd" d="M440.6777 106.4651c4.8678 12.2541-5.2769 27.7854-22.6588 34.69s-35.4189 2.5682-40.2866-9.6859 5.2769-27.7855 22.6588-34.69v5.9316h34.3826v-3.9a17.9428 17.9428 0 0 1 5.904 7.6543Z" transform="translate(-306.5323 -93.9252)"/>
        <path fill="#04040b" fill-rule="evenodd" d="M440.43 106.5635c4.83 12.1577-5.2354 27.5667-22.48 34.417s-35.14 2.548-39.9694-9.61 5.2354-27.5667 22.48-34.417v5.7569h34.1118V98.97a17.8011 17.8011 0 0 1 5.8576 7.5935Z" transform="translate(-306.5323 -93.9252)"/>
        <path fill="#05050c" fill-rule="evenodd" d="M440.1821 106.662c4.7911 12.0611-5.1938 27.3478-22.302 34.1438s-34.8611 2.5277-39.6522-9.5334 5.1938-27.3479 22.302-34.1439v5.5822h33.8411v-3.5823a17.66 17.66 0 0 1 5.8111 7.5336Z" transform="translate(-306.5323 -93.9252)"/>
        <path fill="#05050d" fill-rule="evenodd" d="M439.9343 106.76c4.7528 11.9647-5.1523 27.1291-22.1236 33.8707s-34.5822 2.5075-39.335-9.4572 5.1523-27.1291 22.1236-33.8707v5.4075h33.57v-3.4232a17.5191 17.5191 0 0 1 5.765 7.4729Z" transform="translate(-306.5323 -93.9252)"/>
        <path fill="#05050e" fill-rule="evenodd" d="M439.6865 106.8588c4.7144 11.8682-5.1108 26.91-21.9452 33.5976s-34.3033 2.4873-39.0178-9.3809 5.1108-26.91 21.9452-33.5976v5.2328h33.3v-3.2649a17.3786 17.3786 0 0 1 5.7178 7.413Z" transform="translate(-306.5323 -93.9252)"/>
        <path fill="#06060e" fill-rule="evenodd" d="M439.4386 106.9573c4.6762 11.7717-5.0691 26.6915-21.7667 33.3244s-34.0244 2.467-38.7006-9.3047 5.0692-26.6915 21.7668-33.3244v5.0581h33.0289v-3.1062a17.2362 17.2362 0 0 1 5.6716 7.3528Z" transform="translate(-306.5323 -93.9252)"/>
        <path fill="#06060f" fill-rule="evenodd" d="M439.1908 107.0557c4.6378 11.6752-5.0276 26.4728-21.5883 33.0513s-33.7455 2.4468-38.3833-9.2284 5.0276-26.4728 21.5883-33.0513v4.8834h32.7582v-2.9475a17.0951 17.0951 0 0 1 5.6251 7.2925Z" transform="translate(-306.5323 -93.9252)"/>
        <path fill="#060710" fill-rule="evenodd" d="M438.943 107.1542c4.6 11.5787-4.9861 26.2539-21.41 32.7781s-33.4666 2.4266-38.0661-9.1521 4.9861-26.254 21.41-32.7781v4.7086h23.4672V95.79c6.8886 1.6557 12.2992 5.5748 14.5989 11.3642Z" transform="translate(-306.5323 -93.9252)"/>
        <path fill="#070711" fill-rule="evenodd" d="M438.6952 107.2526c4.5611 11.4822-4.9445 26.0352-21.2315 32.505s-33.1878 2.4063-37.7489-9.0759 4.9445-26.0352 21.2315-32.5049v4.5339h23.2716v-6.728c6.8312 1.6424 12.1967 5.5288 14.4773 11.2699Z" transform="translate(-306.5323 -93.9252)"/>
        <path fill="#070712" fill-rule="evenodd" d="M438.4474 107.351c4.5228 11.3858-4.903 25.8164-21.0531 32.2319s-32.9089 2.3861-37.4317-9 4.903-25.8164 21.0531-32.2318v4.3592h23.0761v-6.5345c6.7738 1.6286 12.0942 5.4824 14.3556 11.1752Z" transform="translate(-306.5323 -93.9252)"/>
        <path fill="#070813" fill-rule="evenodd" d="M438.2 107.45c4.4844 11.2892-4.8615 25.5976-20.8747 31.9586s-32.63 2.366-37.1145-8.9233 4.8615-25.5976 20.8747-31.9586v4.1845h22.88V96.369c6.7165 1.6148 11.9918 5.4359 14.2345 11.081Z" transform="translate(-306.5323 -93.9252)"/>
        <path fill="#080814" fill-rule="evenodd" d="M437.9517 107.5479c4.4462 11.1928-4.82 25.3789-20.6962 31.6855s-32.3511 2.3457-36.7973-8.847 4.82-25.3788 20.6963-31.6855v4.01H423.84v-6.1488c6.6584 1.601 11.8887 5.3895 14.1117 10.9858Z" transform="translate(-306.5323 -93.9252)"/>
        <path fill="#080815" fill-rule="evenodd" d="M437.7039 107.6464c4.4079 11.0962-4.7783 25.16-20.5178 31.4123s-32.0722 2.3255-36.48-8.7707 4.7783-25.16 20.5178-31.4124v3.8351h22.4894v-5.9554c6.6016 1.5872 11.7867 5.3429 13.9906 10.8911Z" transform="translate(-306.5323 -93.9252)"/>
        <path fill="#090916" fill-rule="evenodd" d="M437.4561 107.7448c4.37 11-4.7368 24.9413-20.3394 31.1392s-31.7933 2.3053-36.1628-8.6945 4.7368-24.9413 20.3394-31.1392v3.66h22.2938v-5.7619c6.5442 1.5734 11.6843 5.2965 13.869 10.7964Z" transform="translate(-306.5323 -93.9252)"/>
        <path fill="#090917" fill-rule="evenodd" d="M437.2083 107.8433c4.3312 10.9032-4.6952 24.7224-20.161 30.866s-31.5144 2.2851-35.8456-8.6182 4.6952-24.7225 20.161-30.8661v3.4857h22.0983v-5.5691c6.4868 1.5596 11.5817 5.25 13.7473 10.7017Z" transform="translate(-306.5323 -93.9252)"/>
        <path fill="#090a18" fill-rule="evenodd" d="M436.9605 107.9417c4.2928 10.8068-4.6537 24.5037-19.9826 30.5929s-31.2355 2.2648-35.5284-8.542 4.6537-24.5037 19.9826-30.5929v3.311h21.9027v-5.376c6.4294 1.5458 11.4792 5.2036 13.6257 10.607Z" transform="translate(-306.5323 -93.9252)"/>
        <path fill="#0a0a19" fill-rule="evenodd" d="M436.7127 108.04c4.2545 10.71-4.6122 24.285-19.8042 30.32s-30.9567 2.2446-35.2112-8.4657 4.6121-24.2849 19.8042-30.32v3.1363h21.7072v-5.1827c6.3719 1.5321 11.3767 5.1571 13.504 10.5121Z" transform="translate(-306.5323 -93.9252)"/>
        <path fill="#0a0a1a" fill-rule="evenodd" d="M436.4648 108.1386c4.2162 10.6138-4.5705 24.0661-19.6257 30.0466s-30.6778 2.2244-34.894-8.3895 4.5706-24.0661 19.6258-30.0466v2.9616h21.5116v-4.99c6.3146 1.5185 11.2742 5.111 13.3823 10.4179Z" transform="translate(-306.5323 -93.9252)"/>
        <path fill="#0a0b1b" fill-rule="evenodd" d="M436.217 108.237c4.1779 10.5173-4.529 23.8474-19.4473 29.7735s-30.3989 2.2041-34.5767-8.3132 4.529-23.8473 19.447-29.7734v2.7868h21.316v-4.7965c6.2575 1.5043 11.1721 5.0642 13.261 10.3228Z" transform="translate(-306.5323 -93.9252)"/>
        <path fill="#0b0b1c" fill-rule="evenodd" d="M435.9692 108.3355c4.1395 10.4208-4.4875 23.6285-19.2689 29.5s-30.12 2.1839-34.2595-8.2369 4.4874-23.6286 19.2689-29.5v2.6121h21.12v-4.6034c6.2003 1.4906 11.0697 5.0177 13.1395 10.2282Z" transform="translate(-306.5323 -93.9252)"/>
        <path fill="#0b0c1d" fill-rule="evenodd" d="M435.7214 108.4339c4.1012 10.3244-4.4459 23.41-19.0905 29.2272s-29.8409 2.1637-33.9423-8.1611 4.4459-23.41 19.0905-29.2271v2.4374h20.9249V98.3c6.1424 1.4772 10.9668 4.9717 13.0174 10.1339Z" transform="translate(-306.5323 -93.9252)"/>
        <path fill="#0b0c1e" fill-rule="evenodd" d="M435.4736 108.5323c4.0628 10.2279-4.4044 23.1911-18.9121 28.954s-29.5622 2.1435-33.6251-8.0843 4.4044-23.191 18.9121-28.954v2.2627h20.7294v-4.2171c6.0849 1.463 10.8642 4.9248 12.8957 10.0387Z" transform="translate(-306.5323 -93.9252)"/>
        <path fill="#0c0c1f" fill-rule="evenodd" d="M435.2258 108.6308c4.0245 10.1314-4.3629 22.9722-18.7337 28.6808s-29.2833 2.1233-33.3079-8.0081 4.3628-22.9722 18.7337-28.6808v2.088h20.5338v-4.024c6.0275 1.4492 10.7618 4.8784 12.7741 9.9441Z" transform="translate(-306.5323 -93.9252)"/>
        <path fill="#0c0d1f" fill-rule="evenodd" d="M434.9779 108.7292c3.9863 10.0349-4.3212 22.7535-18.5552 28.4077s-29.0044 2.1031-32.9906-7.9318 4.3212-22.7534 18.5552-28.4077v1.9133h20.3382V98.88c5.9702 1.4353 10.6593 4.8318 12.6524 9.8492Z" transform="translate(-306.5323 -93.9252)"/>
        <path fill="#0d0d20" fill-rule="evenodd" d="M434.73 108.8277c3.9479 9.9384-4.28 22.5346-18.3768 28.1345s-28.7255 2.0828-32.6734-7.8555 4.28-22.5347 18.3768-28.1346v1.7386h20.1427V99.073c5.9128 1.4216 10.5569 4.7855 12.5307 9.7547Z" transform="translate(-306.5323 -93.9252)"/>
        <path fill="#0d0d21" fill-rule="evenodd" d="M434.4823 108.9261c3.91 9.8419-4.2382 22.3159-18.1984 27.8614s-28.4467 2.0626-32.3562-7.7793 4.2381-22.3159 18.1984-27.8614v1.5639h19.9471v-3.4445c5.8553 1.4078 10.4543 4.739 12.4091 9.6599Z" transform="translate(-306.5323 -93.9252)"/>
        <ellipse cx="409.205" cy="118.9672" fill="#0d0e22" rx="26.932" ry="18.9869" transform="rotate(-21.665 10.50636926 872.99279636)"/>
        <ellipse cx="409.205" cy="118.9671" fill="#0e0e23" rx="26.6653" ry="18.7989" transform="rotate(-21.665 10.50349652 873.00015225)"/>
        <ellipse cx="409.205" cy="118.9672" fill="#0e0f24" rx="26.3987" ry="18.6109" transform="rotate(-21.665 10.50769996 872.98896283)"/>
        <ellipse cx="409.205" cy="118.9672" fill="#0f0f25" rx="26.1319" ry="18.4229" transform="rotate(-21.665 10.50561116 872.99646863)"/>
        <path fill="#0f0f26" fill-rule="evenodd" d="M433.2432 109.4183c3.7179 9.3595-4.03 21.222-17.3063 26.4957s-27.0522 1.9615-30.77-7.398 4.03-21.222 17.3063-26.4956 27.0521-1.9615 30.77 7.3979Z" transform="translate(-306.5323 -93.9252)"/>
        <ellipse cx="409.205" cy="118.9672" fill="#0f1027" rx="25.5987" ry="18.0469" transform="rotate(-21.665 10.50294971 873.0041359)"/>
        <ellipse cx="409.205" cy="118.9672" fill="#101028" rx="25.3321" ry="17.8589" transform="rotate(-21.665 10.50558534 872.99264636)"/>
        <ellipse cx="409.205" cy="118.9671" fill="#101129" rx="25.0654" ry="17.6709" transform="rotate(-21.665 10.50428044 873.00030225)"/>
        <ellipse cx="409.205" cy="118.9671" fill="#10112a" rx="24.7988" ry="17.483" transform="rotate(-21.665 10.50636926 872.99279636)"/>
        <path fill="#11112b" fill-rule="evenodd" d="M432.0041 109.9105c3.5263 8.877-3.8226 20.1281-16.4142 25.13s-25.6578 1.86-29.184-7.0166 3.8226-20.1281 16.4142-25.13 25.6578-1.8604 29.184 7.0166Z" transform="translate(-306.5323 -93.9252)"/>
        <ellipse cx="409.205" cy="118.9672" fill="#11122c" rx="24.2654" ry="17.107" transform="rotate(-21.665 10.50529986 872.99667994)"/>
        <ellipse cx="409.205" cy="118.9671" fill="#12122d" rx="23.9988" ry="16.919" transform="rotate(-21.665 10.50587247 872.99651863)"/>
        <ellipse cx="409.205" cy="118.9672" fill="#12132e" rx="23.7321" ry="16.731" transform="rotate(-21.665 10.50190447 873.0039359)"/>
        <ellipse cx="409.205" cy="118.9671" fill="#12132f" rx="23.4655" ry="16.5431" transform="rotate(-21.665 10.50428044 873.00030225)"/>
        <ellipse cx="409.205" cy="118.9672" fill="#131330" rx="23.1989" ry="16.3551" transform="rotate(-21.665 10.50503855 872.99662994)"/>
        <ellipse cx="409.205" cy="118.9672" fill="#131431" rx="22.9321" ry="16.1671" transform="rotate(-21.665 10.50610795 872.99274636)"/>
        <ellipse cx="409.205" cy="118.9671" fill="#141432" rx="22.6655" ry="15.979" transform="rotate(-21.665 10.50822257 872.98906283)"/>
        <ellipse cx="409.205" cy="118.9672" fill="#141533" rx="22.3989" ry="15.791" transform="rotate(-21.665 10.50717735 872.98886283)"/>
        <ellipse cx="409.205" cy="118.9672" fill="#141534" rx="22.1322" ry="15.6031" transform="rotate(-21.665 10.50508855 872.99636863)"/>
        <ellipse cx="409.205" cy="118.9671" fill="#151635" rx="21.8656" ry="15.4151" transform="rotate(-21.665 10.51005002 872.98150717)"/>
        <ellipse cx="409.205" cy="118.9671" fill="#151636" rx="21.5989" ry="15.2271" transform="rotate(-21.664 10.50271421 873.00790828)"/>
        <ellipse cx="409.205" cy="118.9671" fill="#161637" rx="21.3322" ry="15.0391" transform="rotate(-21.665 10.50558534 872.99264636)"/>
        <ellipse cx="409.205" cy="118.9672" fill="#161738" rx="21.0656" ry="14.8511" transform="rotate(-21.665 10.50480306 873.00040225)"/>
        <ellipse cx="409.205" cy="118.9671" fill="#161739" rx="20.7989" ry="14.6632" transform="rotate(-21.665 10.50454175 873.00035225)"/>
        <ellipse cx="409.205" cy="118.9672" fill="#17183a" rx="20.5323" ry="14.4752" transform="rotate(-21.665 10.50503855 872.99662994)"/>
        <ellipse cx="409.205" cy="118.9672" fill="#17183b" rx="20.2656" ry="14.2872" transform="rotate(-21.665 10.50610795 872.99274636)"/>
        <path fill="#18183d" fill-rule="evenodd" d="M427.7913 111.584c2.8746 7.2367-3.1163 16.4088-13.3813 20.4864s-20.9166 1.5166-23.7913-5.72S393.735 109.9416 404 105.864s20.9166-1.5167 23.7913 5.72Z" transform="translate(-306.5323 -93.9252)"/>
        <ellipse cx="409.205" cy="118.9671" fill="#18193e" rx="19.7323" ry="13.9111" transform="rotate(-21.665 10.50373364 873.0042859)"/>
        <ellipse cx="409.205" cy="118.9671" fill="#18193f" rx="19.4656" ry="13.7231" transform="rotate(-21.665 10.50639343 872.98871283)"/>
        <ellipse cx="409.205" cy="118.9672" fill="#191a40" rx="19.199" ry="13.5351" transform="rotate(-21.665 10.50347233 873.0042359)"/>
        <ellipse cx="409.205" cy="118.9671" fill="#191a41" rx="18.9324" ry="13.3472" transform="rotate(-21.665 10.5031852 873.00036356)"/>
        <ellipse cx="409.205" cy="118.9672" fill="#1a1a42" rx="18.6657" ry="13.1592" transform="rotate(-21.665 10.50451593 872.99652994)"/>
        <ellipse cx="409.205" cy="118.9671" fill="#1a1b43" rx="18.3991" ry="12.9712" transform="rotate(-21.665 10.50532404 872.99259636)"/>
        <ellipse cx="409.205" cy="118.9672" fill="#1a1b44" rx="18.1324" ry="12.7832" transform="rotate(-21.665 10.50793543 872.98519063)"/>
        <path fill="#1b1c45" fill-rule="evenodd" d="M425.8087 112.3716c2.5681 6.4647-2.7839 14.6584-11.9539 18.3011s-18.6855 1.3548-21.2535-5.11 2.7839-14.6585 11.9538-18.3012 18.6856-1.3547 21.2536 5.1101Z" transform="translate(-306.5323 -93.9252)"/>
        <path fill="#1b1c46" fill-rule="evenodd" d="M425.5609 112.47c2.53 6.3683-2.7423 14.44-11.7755 18.028s-18.4066 1.3346-20.9363-5.0337 2.7423-14.44 11.7754-18.0279 18.4067-1.3347 20.9364 5.0336Z" transform="translate(-306.5323 -93.9252)"/>
        <ellipse cx="409.205" cy="118.9672" fill="#1c1d47" rx="17.3324" ry="12.2193" transform="rotate(-21.665 10.5024271 873.0040359)"/>
        <ellipse cx="409.205" cy="118.9672" fill="#1c1d48" rx="17.0658" ry="12.0313" transform="rotate(-21.665 10.50451593 872.99652994)"/>
        <ellipse cx="409.205" cy="118.9671" fill="#1c1d49" rx="16.7992" ry="11.8433" transform="rotate(-21.665 10.50428044 873.00030225)"/>
        <ellipse cx="409.205" cy="118.9671" fill="#1d1e4a" rx="16.5324" ry="11.6553" transform="rotate(-21.665 10.5031852 873.00036356)"/>
        <ellipse cx="409.205" cy="118.9671" fill="#1d1e4b" rx="16.2658" ry="11.4673" transform="rotate(-21.665 10.50373364 873.0042859)"/>
        <ellipse cx="409.205" cy="118.9672" fill="#1e1f4c" rx="15.9992" ry="11.2793" transform="rotate(-21.665 10.50689187 872.99289636)"/>
        <ellipse cx="409.205" cy="118.9671" fill="#1e1f4d" rx="15.7325" ry="11.0913" transform="rotate(-21.665 10.50665474 872.98876283)"/>
        <ellipse cx="409.205" cy="118.9671" fill="#1e1f4e" rx="15.4659" ry="10.9033" transform="rotate(-21.665 10.5092661 872.98135717)"/>
        <ellipse cx="409.205" cy="118.9671" fill="#1f204f" rx="15.1992" ry="10.7154" transform="rotate(-21.665 10.50534986 872.99641863)"/>
        <ellipse cx="409.205" cy="118.9671" fill="#1f2050" rx="14.9325" ry="10.5274" transform="rotate(-21.665 10.50587247 872.99651863)"/>
        <ellipse cx="409.205" cy="118.9672" fill="#202151" rx="14.6659" ry="10.3394" transform="rotate(-21.665 10.50532404 872.99259636)"/>
        <ellipse cx="409.205" cy="118.9672" fill="#202152" rx="14.3993" ry="10.1514" transform="rotate(-21.665 10.50373364 873.0042859)"/>
        <ellipse cx="409.205" cy="118.9672" fill="#202253" rx="14.1326" ry="9.9634" transform="rotate(-21.665 10.50375783 873.00020225)"/>
        <path fill="#212254" fill-rule="evenodd" d="M422.0915 113.8482c1.9931 5.0174-2.1607 11.3767-9.2777 14.2038s-14.5022 1.0516-16.4953-3.9659 2.1607-11.3767 9.2777-14.2038 14.5022-1.0515 16.4953 3.9659Z" transform="translate(-306.5323 -93.9252)"/>
        <path fill="#212255" fill-rule="evenodd" d="M421.8436 113.9466c1.9548 4.921-2.119 11.158-9.0992 13.9307s-14.2233 1.0313-16.1781-3.89 2.1191-11.158 9.0993-13.9307 14.2233-1.0309 16.178 3.89Z" transform="translate(-306.5323 -93.9252)"/>
        <path fill="#222356" fill-rule="evenodd" d="M421.5958 114.0451c1.9165 4.8244-2.0775 10.9391-8.9208 13.6575s-13.9444 1.0111-15.8608-3.8134 2.0775-10.9391 8.9208-13.6575 13.9444-1.0111 15.8608 3.8134Z" transform="translate(-306.5323 -93.9252)"/>
        <ellipse cx="409.205" cy="118.9671" fill="#222358" rx="13.066" ry="9.2114" transform="rotate(-21.665 10.51059677 872.97752375)"/>
        <path fill="#222459" fill-rule="evenodd" d="M421.1 114.242c1.84 4.6314-1.9944 10.5015-8.564 13.1112s-13.3866.9706-15.2264-3.6608 1.9944-10.5016 8.564-13.1113 13.3864-.9706 15.2264 3.6609Z" transform="translate(-306.5323 -93.9252)"/>
        <ellipse cx="409.205" cy="118.9671" fill="#23245a" rx="12.5327" ry="8.8355" transform="rotate(-21.665 10.50610795 872.99274636)"/>
        <path fill="#23255b" fill-rule="evenodd" d="M420.6046 114.4388c1.7631 4.4385-1.9114 10.0641-8.2072 12.565s-12.8288.93-14.592-3.5083 1.9114-10.064 8.2072-12.565 12.8288-.9305 14.592 3.5083Z" transform="translate(-306.5323 -93.9252)"/>
        <path fill="#24255c" fill-rule="evenodd" d="M420.3567 114.5373c1.7249 4.342-1.87 9.8452-8.0287 12.2918s-12.55.91-14.2748-3.4321 1.87-9.8452 8.0288-12.2918 12.5499-.9099 14.2747 3.4321Z" transform="translate(-306.5323 -93.9252)"/>
        <path fill="#24255d" fill-rule="evenodd" d="M420.1089 114.6357c1.6865 4.2456-1.8282 9.6265-7.85 12.0187s-12.2711.89-13.9575-3.3558 1.8282-9.6265 7.85-12.0186 12.2711-.89 13.9575 3.3557Z" transform="translate(-306.5323 -93.9252)"/>
        <path fill="#24265e" fill-rule="evenodd" d="M419.8611 114.7342c1.6482 4.149-1.7867 9.4076-7.6719 11.7455s-11.9922.87-13.64-3.2795 1.7866-9.4077 7.6719-11.7455 11.9919-.8696 13.64 3.2795Z" transform="translate(-306.5323 -93.9252)"/>
        <ellipse cx="409.205" cy="118.9671" fill="#25265f" rx="11.1994" ry="7.8955" transform="rotate(-21.665 10.50819673 872.98524063)"/>
        <path fill="#252760" fill-rule="evenodd" d="M419.3655 114.9311c1.5715 3.956-1.7036 8.97-7.3151 11.1991s-11.4344.8291-13.0059-3.1269 1.7036-8.97 7.3151-11.1992 11.4344-.8291 13.0059 3.127Z" transform="translate(-306.5323 -93.9252)"/>
        <ellipse cx="409.205" cy="118.9671" fill="#262761" rx="10.6662" ry="7.5195" transform="rotate(-21.665 10.50613378 872.99656863)"/>
        <ellipse cx="409.205" cy="118.9672" fill="#262862" rx="10.3995" ry="7.3316" transform="rotate(-21.665 10.50613378 872.99656863)"/>
        <path fill="#272863" fill-rule="evenodd" d="M418.622 115.2264c1.4565 3.6666-1.5789 8.3137-6.78 10.38s-10.5977.7684-12.0542-2.8982 1.5789-8.3137 6.78-10.38 10.5977-.7682 12.0542 2.8982Z" transform="translate(-306.5323 -93.9252)"/>
        <path fill="#272864" fill-rule="evenodd" d="M418.3742 115.3248c1.4182 3.57-1.5374 8.095-6.6014 10.1066s-10.3189.7482-11.737-2.8219 1.5373-8.095 6.6014-10.1066 10.3188-.7482 11.737 2.8219Z" transform="translate(-306.5323 -93.9252)"/>
        <path fill="#272965" fill-rule="evenodd" d="M418.1264 115.4233c1.38 3.4736-1.4958 7.8762-6.423 9.8334s-10.04.728-11.42-2.7456 1.4958-7.8762 6.423-9.8335 10.0402-.7276 11.42 2.7457Z" transform="translate(-306.5323 -93.9252)"/>
        <path fill="#282966" fill-rule="evenodd" d="M417.8786 115.5217c1.3415 3.3771-1.4543 7.6574-6.2446 9.56s-9.7611.7077-11.1026-2.6694 1.4543-7.6574 6.2446-9.56 9.7611-.7077 11.1026 2.6694Z" transform="translate(-306.5323 -93.9252)"/>
        <path fill="#282a67" fill-rule="evenodd" d="M417.6308 115.62c1.3031 3.2807-1.4128 7.4387-6.0662 9.2872s-9.4822.6875-10.7854-2.5931 1.4127-7.4386 6.0662-9.2872 9.4822-.6869 10.7854 2.5931Z" transform="translate(-306.5323 -93.9252)"/>
        <path fill="#292a68" fill-rule="evenodd" d="M417.3829 115.7186c1.2649 3.1841-1.3711 7.22-5.8877 9.014s-9.2033.6673-10.4682-2.5169 1.3712-7.22 5.8878-9.0139 9.2033-.6674 10.4681 2.5168Z" transform="translate(-306.5323 -93.9252)"/>
        <path fill="#292b6a" fill-rule="evenodd" d="M417.1351 115.817c1.2266 3.0877-1.33 7.0011-5.7093 8.7409s-8.9244.647-10.1509-2.4406 1.33-7.0011 5.7093-8.7408 8.9244-.6471 10.1509 2.4405Z" transform="translate(-306.5323 -93.9252)"/>
        <path fill="#292b6b" fill-rule="evenodd" d="M416.8873 115.9155c1.1882 2.9911-1.2881 6.7822-5.5309 8.4676s-8.6455.6269-9.8337-2.3642 1.288-6.7823 5.5309-8.4677 8.6455-.6269 9.8337 2.3643Z" transform="translate(-306.5323 -93.9252)"/>
        <path fill="#2a2b6c" fill-rule="evenodd" d="M416.64 116.0139c1.15 2.8947-1.2465 6.5635-5.3525 8.1945s-8.3666.6067-9.5165-2.288 1.2465-6.5635 5.3525-8.1945 8.3665-.6067 9.5165 2.288Z" transform="translate(-306.5323 -93.9252)"/>
        <path fill="#2a2c6d" fill-rule="evenodd" d="M416.3917 116.1124c1.1115 2.7981-1.205 6.3447-5.1741 7.9213s-8.0878.5865-9.1993-2.2117 1.205-6.3447 5.1741-7.9214 8.0876-.5864 9.1993 2.2118Z" transform="translate(-306.5323 -93.9252)"/>
        <path fill="#2b2c6e" fill-rule="evenodd" d="M416.1439 116.2108c1.0732 2.7017-1.1635 6.1259-4.9957 7.6482s-7.8089.5662-8.8821-2.1355 1.1634-6.1259 4.9957-7.6482 7.8089-.5662 8.8821 2.1355Z" transform="translate(-306.5323 -93.9252)"/>
        <path fill="#2b2d6f" fill-rule="evenodd" d="M415.896 116.3092c1.0349 2.6052-1.1218 5.9072-4.8172 7.3751s-7.53.546-8.5649-2.0592 1.1219-5.9072 4.8173-7.3751 7.53-.546 8.5648 2.0592Z" transform="translate(-306.5323 -93.9252)"/>
        <path fill="#2b2d70" fill-rule="evenodd" d="M415.6482 116.4077c.9966 2.5087-1.08 5.6883-4.6388 7.1019s-7.2511.5258-8.2476-1.983 1.08-5.6883 4.6388-7.1019 7.2511-.5257 8.2476 1.983Z" transform="translate(-306.5323 -93.9252)"/>
        <path fill="#2c2e71" fill-rule="evenodd" d="M415.4 116.5061c.9582 2.4123-1.0388 5.47-4.46 6.8288s-6.9722.5055-7.93-1.9067 1.0387-5.47 4.46-6.8288 6.9722-.5055 7.93 1.9067Z" transform="translate(-306.5323 -93.9252)"/>
        <path fill="#2c2e72" fill-rule="evenodd" d="M415.1526 116.6046c.92 2.3157-.9972 5.2508-4.282 6.5556s-6.6933.4853-7.6132-1.83.9972-5.2508 4.282-6.5557 6.6933-.4857 7.6132 1.8301Z" transform="translate(-306.5323 -93.9252)"/>
        <path fill="#2d2e73" fill-rule="evenodd" d="M414.9048 116.703c.8815 2.2193-.9557 5.032-4.1036 6.2825s-6.4144.4651-7.296-1.7542.9557-5.032 4.1036-6.2825 6.4144-.4651 7.296 1.7542Z" transform="translate(-306.5323 -93.9252)"/>
        <path fill="#2d2f74" fill-rule="evenodd" d="M414.657 116.8014c.8432 2.1228-.9142 4.8133-3.9252 6.0094s-6.1355.4448-6.9788-1.6779.9141-4.8133 3.9252-6.0093 6.1355-.4449 6.9788 1.6778Z" transform="translate(-306.5323 -93.9252)"/>
        <path fill="#2e2f75" fill-rule="evenodd" d="M414.4091 116.9c.805 2.0263-.8725 4.5944-3.7467 5.7362s-5.8566.4246-6.6616-1.6017.8726-4.5944 3.7468-5.7361 5.8566-.4248 6.6615 1.6016Z" transform="translate(-306.5323 -93.9252)"/>
        <path fill="#2e3076" fill-rule="evenodd" d="M414.1613 116.9983c.7666 1.93-.831 4.3757-3.5683 5.463s-5.5778.4045-6.3443-1.5253.831-4.3757 3.5683-5.463 5.5777-.4045 6.3443 1.5253Z" transform="translate(-306.5323 -93.9252)"/>
        <path fill="#2e3077" fill-rule="evenodd" d="M413.9135 117.0968c.7283 1.8333-.7894 4.1568-3.39 5.19s-5.2989.3842-6.0271-1.449.7894-4.1569 3.39-5.19 5.2989-.3843 6.0271 1.449Z" transform="translate(-306.5323 -93.9252)"/>
        <path fill="#2f3179" fill-rule="evenodd" d="M413.6657 117.1952c.69 1.7368-.7479 3.9381-3.2115 4.9167s-5.02.364-5.71-1.3728.7479-3.9381 3.2115-4.9167 5.0201-.364 5.71 1.3728Z" transform="translate(-306.5323 -93.9252)"/>
        <path fill="#2f317a" fill-rule="evenodd" d="M413.4179 117.2937c.6516 1.64-.7064 3.7193-3.0331 4.6435s-4.7411.3438-5.3927-1.2965.7064-3.7193 3.0331-4.6436 4.7411-.3438 5.3927 1.2966Z" transform="translate(-306.5323 -93.9252)"/>
        <path fill="#30317b" fill-rule="evenodd" d="M413.17 117.3921c.6132 1.5438-.6648 3.5005-2.8547 4.37s-4.4622.3236-5.0755-1.22.6648-3.5 2.8547-4.37 4.4623-.3238 5.0755 1.22Z" transform="translate(-306.5323 -93.9252)"/>
        <path fill="#30327c" fill-rule="evenodd" d="M412.9222 117.4905c.575 1.4474-.6232 3.2818-2.6762 4.0973s-4.1833.3033-4.7583-1.144.6233-3.2818 2.6763-4.0973 4.1833-.3033 4.7582 1.144Z" transform="translate(-306.5323 -93.9252)"/>
        <path fill="#31327d" fill-rule="evenodd" d="M412.6744 117.589c.5366 1.3508-.5817 3.0629-2.4978 3.8241s-3.9044.2831-4.441-1.0678.5817-3.0629 2.4978-3.8241 3.9044-.2831 4.441 1.0678Z" transform="translate(-306.5323 -93.9252)"/>
        <path fill="#31337e" fill-rule="evenodd" d="M412.4266 117.6874c.4983 1.2544-.54 2.8442-2.3194 3.551s-3.6255.2629-4.1238-.9915.54-2.8442 2.3194-3.551 3.6255-.2628 4.1238.9915Z" transform="translate(-306.5323 -93.9252)"/>
        <path fill="#31337f" fill-rule="evenodd" d="M412.1788 117.7859c.46 1.1578-.4986 2.6254-2.141 3.2778s-3.3467.2426-3.8066-.9152.4986-2.6254 2.141-3.2779 3.3466-.2426 3.8066.9153Z" transform="translate(-306.5323 -93.9252)"/>
        <path fill="#323480" fill-rule="evenodd" d="M411.931 117.8843c.4216 1.0614-.4571 2.4066-1.9626 3.0047s-3.0678.2224-3.4894-.839.4571-2.4066 1.9626-3.0046 3.0678-.2225 3.4894.8389Z" transform="translate(-306.5323 -93.9252)"/>
        <path fill="#323481" fill-rule="evenodd" d="M411.6832 117.9827c.3833.9649-.4155 2.1879-1.7842 2.7316s-2.7889.2022-3.1722-.7627.4155-2.1879 1.7842-2.7315 2.789-.2022 3.1722.7626Z" transform="translate(-306.5323 -93.9252)"/>
        <path fill="#333482" fill-rule="evenodd" d="M411.4353 118.0812c.345.8684-.3739 1.969-1.6057 2.4583s-2.51.182-2.855-.6864.374-1.969 1.6058-2.4583 2.5096-.182 2.8549.6864Z" transform="translate(-306.5323 -93.9252)"/>
        <path fill="#333583" fill-rule="evenodd" d="M411.1875 118.18c.3067.7719-.3324 1.75-1.4273 2.1852s-2.2311.1618-2.5377-.61.3324-1.75 1.4273-2.1852 2.2311-.1623 2.5377.61Z" transform="translate(-306.5323 -93.9252)"/>
        <path fill="#333584" fill-rule="evenodd" d="M410.94 118.2781c.2683.6754-.2908 1.5315-1.2489 1.912a1.6654 1.6654 0 0 1-2.2205-.5338c-.2683-.6755.2908-1.5315 1.2489-1.9121a1.6654 1.6654 0 0 1 2.2205.5339Z" transform="translate(-306.5323 -93.9252)"/>
        <path fill="#343686" fill-rule="evenodd" d="M410.6919 118.3765c.23.5789-.2493 1.3127-1.07 1.6389a1.4276 1.4276 0 0 1-1.9033-.4576c-.23-.5789.2493-1.3127 1.07-1.6389a1.4276 1.4276 0 0 1 1.9033.4576Z" transform="translate(-306.5323 -93.9252)"/>
        <path fill="#343687" fill-rule="evenodd" d="M410.4441 118.475c.1916.4824-.2078 1.0939-.8921 1.3657a1.19 1.19 0 0 1-1.5861-.3813c-.1916-.4825.2078-1.0939.8921-1.3658a1.19 1.19 0 0 1 1.5861.3814Z" transform="translate(-306.5323 -93.9252)"/>
        <path fill="#353788" fill-rule="evenodd" d="M410.1963 118.5734c.1533.386-.1662.8751-.7137 1.0926a.9517.9517 0 0 1-1.2689-.3051c-.1533-.3859.1662-.8751.7137-1.0926a.9518.9518 0 0 1 1.2689.3051Z" transform="translate(-306.5323 -93.9252)"/>
        <path fill="#353789" fill-rule="evenodd" d="M409.9484 118.6718c.115.2895-.1246.6564-.5352.8195a.7138.7138 0 0 1-.9517-.2288c-.1149-.29.1247-.6564.5353-.82a.7137.7137 0 0 1 .9516.2293Z" transform="translate(-306.5323 -93.9252)"/>
        <path fill="#36388a" fill-rule="evenodd" d="M409.7006 118.77c.0767.193-.0831.4375-.3568.5463a.4758.4758 0 0 1-.6344-.1526c-.0767-.1929.0831-.4375.3568-.5463a.4758.4758 0 0 1 .6344.1526Z" transform="translate(-306.5323 -93.9252)"/>
        <path fill="#36388b" fill-rule="evenodd" d="M409.4528 118.8687c.0383.0965-.0415.2188-.1784.2732a.2379.2379 0 0 1-.3172-.0763c-.0384-.0965.0415-.2188.1784-.2731s.2789-.0203.3172.0762Z" transform="translate(-306.5323 -93.9252)"/>
      </g>
      <path fill="url(#ŃŚÁŻž_ŪŪŻť_ūŗšŤŚŪÚ_217)" d="M416.43 116.748c.989 2.5526-2.8173 6.4072-8.5016 8.6095s-11.0941 1.9183-12.0831-.6344 2.8174-6.4072 8.5017-8.6095 11.0936-1.9182 12.083.6344Z" style="mix-blend-mode:screen" transform="translate(-306.5323 -93.9252)"/>
      <path fill="url(#ŃŚÁŻž_ŪŪŻť_ūŗšŤŚŪÚ_36-5)" fill-rule="evenodd" d="M337.572 217.9983s5.2778 2.7509 9.2464 1.5134 3.4824-5.6195 3.4824-5.6195 1.6577 3.1186-.486 7.9927c0 0-7.8948.0474-12.2428-3.8866Z" style="mix-blend-mode:multiply" transform="translate(-306.5323 -93.9252)"/>
      <path fill="url(#ŃŚÁŻž_ŪŪŻť_ūŗšŤŚŪÚ_94)" fill-rule="evenodd" d="M469.6584 173.5359a22.269 22.269 0 0 1-3.63 3.71 11.9391 11.9391 0 0 1-4.48-6.54s.04-.81.16-2.02c0 .0001 1.3799 4.2501 7.95 4.85Z" style="mix-blend-mode:multiply" transform="translate(-306.5323 -93.9252)"/>
      <circle cx="97.3464" cy="109.3708" r="6.5608" fill="#684d73"/>
      <path d="M408.0026 203.296a4.1239 4.1239 0 1 1-4.1239-4.1239 4.1239 4.1239 0 0 1 4.1239 4.1239Z" class="cls-8" transform="translate(-306.5323 -93.9252)"/>
      <path d="M377.8335 194.8184s8.1466 4.3537 8.1466-7.461c-.0001 0-5.8501 5.4852-8.1466 7.461Z" class="cls-6" transform="translate(-306.5323 -93.9252)"/>
      <path d="m420.3584 270.9443-.05-.2441c.2207-.0449 22.1147-4.5811 26.1411-12.3369l.2217.1152c-4.0812 7.8623-25.407 12.2822-26.3128 12.4658Zm-15.7295 5.584a38.6475 38.6475 0 0 0-5.1562-10.7607c-5.8213-8.3985-22.2676-15.36-22.4331-15.43l.0966-.23c.166.0694 16.6792 7.06 22.5415 15.5176a38.9314 38.9314 0 0 1 5.1934 10.8389Zm-43.8354-44.2549-.2461-.0429c2.0346-11.7871-.0733-18.0938-2.1993-21.3086a9.6649 9.6649 0 0 0-5.1074-4.1729l.0586-.2422a9.7361 9.7361 0 0 1 5.2573 4.2774c2.1509 3.2529 4.2857 9.6201 2.2369 21.4892Zm98.374-37.8628c-11.7393-8.2534-5.1362-25.8735-5.0684-26.0507l.2334.09c-.0674.1753-6.6 17.6157 4.9785 25.7568Z" class="cls-14" transform="translate(-306.5323 -93.9252)"/>
      <path d="M405.7638 222.7314a17.6309 17.6309 0 0 1-.6637 4.4168l-3.1062-.3236a7.8853 7.8853 0 0 1 1.382-4.3132Zm-46.077-16.103a6.8634 6.8634 0 0 0 3.0947-.9324l1.579.9324s-1.7484 2.11-3.7795 1.473Zm17.1244 68.0984a9.3 9.3 0 0 0-1.2905 4.29l2.3713.9314.9791-4.2269Zm80.8967-109.0493a5.3518 5.3518 0 0 0-1.3737 3.0085l-1.8474 1.1126a8.05 8.05 0 0 1 .71-1.8711 10.6808 10.6808 0 0 1 2.5111-2.25Zm-11.7599 99.6881s2.9208 4.4988 3.2967 7.0251l2.0842-.8211a15.8629 15.8629 0 0 0-2.9053-6.948Zm-71.3132-157.217s10.1745-8.6716 17.7994-11.179c0 .0004-27.9251 6.2527-17.7994 11.179Z" class="cls-23" transform="translate(-306.5323 -93.9252)"/>
      <path d="m62.398 46.229 4.021-2.83 2.867 4.465-4.022 2.349-2.866-3.984z" class="cls-23"/>
    </g>
  </g>
</svg>